TITLE ""
FILE "P1Q_t_1220-1229.mp3" MP3
  TRACK 01 AUDIO
    TITLE "P1Q_t_1220-1229_01"
    INDEX 01 00:00:00
  TRACK 02 AUDIO
    TITLE "P1Q_t_1220-1229_02"
    INDEX 01 00:01:02
  TRACK 03 AUDIO
    TITLE "P1Q_t_1220-1229_03"
    INDEX 01 00:01:23
  TRACK 04 AUDIO
    TITLE "P1Q_t_1220-1229_04"
    INDEX 01 00:04:55
  TRACK 05 AUDIO
    TITLE "P1Q_t_1220-1229_05"
    INDEX 01 00:04:75
  TRACK 06 AUDIO
    TITLE "P1Q_t_1220-1229_06"
    INDEX 01 00:09:05
  TRACK 07 AUDIO
    TITLE "P1Q_t_1220-1229_07"
    INDEX 01 00:09:50
  TRACK 08 AUDIO
    TITLE "P1Q_t_1220-1229_08"
    INDEX 01 00:10:73
  TRACK 09 AUDIO
    TITLE "P1Q_t_1220-1229_09"
    INDEX 01 00:11:18
  TRACK 10 AUDIO
    TITLE "P1Q_t_1220-1229_10"
    INDEX 01 00:12:45
  TRACK 11 AUDIO
    TITLE "P1Q_t_1220-1229_11"
    INDEX 01 00:12:64
  TRACK 12 AUDIO
    TITLE "P1Q_t_1220-1229_12"
    INDEX 01 00:17:40
  TRACK 13 AUDIO
    TITLE "P1Q_t_1220-1229_13"
    INDEX 01 00:18:10
  TRACK 14 AUDIO
    TITLE "P1Q_t_1220-1229_14"
    INDEX 01 00:19:31
  TRACK 15 AUDIO
    TITLE "P1Q_t_1220-1229_15"
    INDEX 01 00:19:51
  TRACK 16 AUDIO
    TITLE "P1Q_t_1220-1229_16"
    INDEX 01 00:23:31
  TRACK 17 AUDIO
    TITLE "P1Q_t_1220-1229_17"
    INDEX 01 00:23:51
  TRACK 18 AUDIO
    TITLE "P1Q_t_1220-1229_18"
    INDEX 01 00:28:75
  TRACK 19 AUDIO
    TITLE "P1Q_t_1220-1229_19"
    INDEX 01 00:29:45
  TRACK 20 AUDIO
    TITLE "P1Q_t_1220-1229_20"
    INDEX 01 00:31:11
  TRACK 21 AUDIO
    TITLE "P1Q_t_1220-1229_21"
    INDEX 01 00:31:30
  TRACK 22 AUDIO
    TITLE "P1Q_t_1220-1229_22"
    INDEX 01 00:33:55
  TRACK 23 AUDIO
    TITLE "P1Q_t_1220-1229_23"
    INDEX 01 00:33:74
  TRACK 24 AUDIO
    TITLE "P1Q_t_1220-1229_24"
    INDEX 01 00:38:30
  TRACK 25 AUDIO
    TITLE "P1Q_t_1220-1229_25"
    INDEX 01 00:39:01
  TRACK 26 AUDIO
    TITLE "P1Q_t_1220-1229_26"
    INDEX 01 00:40:14
  TRACK 27 AUDIO
    TITLE "P1Q_t_1220-1229_27"
    INDEX 01 00:40:35
  TRACK 28 AUDIO
    TITLE "P1Q_t_1220-1229_28"
    INDEX 01 00:45:09
  TRACK 29 AUDIO
    TITLE "P1Q_t_1220-1229_29"
    INDEX 01 00:45:31
  TRACK 30 AUDIO
    TITLE "P1Q_t_1220-1229_30"
    INDEX 01 00:50:36
  TRACK 31 AUDIO
    TITLE "P1Q_t_1220-1229_31"
    INDEX 01 00:51:06
  TRACK 32 AUDIO
    TITLE "P1Q_t_1220-1229_32"
    INDEX 01 00:52:23
  TRACK 33 AUDIO
    TITLE "P1Q_t_1220-1229_33"
    INDEX 01 00:52:42
  TRACK 34 AUDIO
    TITLE "P1Q_t_1220-1229_34"
    INDEX 01 00:53:75
  TRACK 35 AUDIO
    TITLE "P1Q_t_1220-1229_35"
    INDEX 01 00:54:20
  TRACK 36 AUDIO
    TITLE "P1Q_t_1220-1229_36"
    INDEX 01 00:59:64
  TRACK 37 AUDIO
    TITLE "P1Q_t_1220-1229_37"
    INDEX 01 01:00:34
  TRACK 38 AUDIO
    TITLE "P1Q_t_1220-1229_38"
    INDEX 01 01:01:47
  TRACK 39 AUDIO
    TITLE "P1Q_t_1220-1229_39"
    INDEX 01 01:01:69
  TRACK 40 AUDIO
    TITLE "P1Q_t_1220-1229_40"
    INDEX 01 01:07:09
  TRACK 41 AUDIO
    TITLE "P1Q_t_1220-1229_41"
    INDEX 01 01:07:28
  TRACK 42 AUDIO
    TITLE "P1Q_t_1220-1229_42"
    INDEX 01 01:12:65
  TRACK 43 AUDIO
    TITLE "P1Q_t_1220-1229_43"
    INDEX 01 01:13:37
  TRACK 44 AUDIO
    TITLE "P1Q_t_1220-1229_44"
    INDEX 01 01:14:56
  TRACK 45 AUDIO
    TITLE "P1Q_t_1220-1229_45"
    INDEX 01 01:14:75
  TRACK 46 AUDIO
    TITLE "P1Q_t_1220-1229_46"
    INDEX 01 01:16:68
  TRACK 47 AUDIO
    TITLE "P1Q_t_1220-1229_47"
    INDEX 01 01:17:13
  TRACK 48 AUDIO
    TITLE "P1Q_t_1220-1229_48"
    INDEX 01 01:22:22
  TRACK 49 AUDIO
    TITLE "P1Q_t_1220-1229_49"
    INDEX 01 01:22:67
  TRACK 50 AUDIO
    TITLE "P1Q_t_1220-1229_50"
    INDEX 01 01:24:03
  TRACK 51 AUDIO
    TITLE "P1Q_t_1220-1229_51"
    INDEX 01 01:24:25
  TRACK 52 AUDIO
    TITLE "P1Q_t_1220-1229_52"
    INDEX 01 01:29:65
  TRACK 53 AUDIO
    TITLE "P1Q_t_1220-1229_53"
    INDEX 01 01:30:12
  TRACK 54 AUDIO
    TITLE "P1Q_t_1220-1229_54"
    INDEX 01 01:35:36
  TRACK 55 AUDIO
    TITLE "P1Q_t_1220-1229_55"
    INDEX 01 01:36:06
  TRACK 56 AUDIO
    TITLE "P1Q_t_1220-1229_56"
    INDEX 01 01:37:22
  TRACK 57 AUDIO
    TITLE "P1Q_t_1220-1229_57"
    INDEX 01 01:37:39
  TRACK 58 AUDIO
    TITLE "P1Q_t_1220-1229_58"
    INDEX 01 01:40:10
  TRACK 59 AUDIO
    TITLE "P1Q_t_1220-1229_59"
    INDEX 01 01:40:30
  TRACK 60 AUDIO
    TITLE "P1Q_t_1220-1229_60"
    INDEX 01 01:45:31
